<svg id="Layer_1" data-name="Layer 1" xmlns="http://www.w3.org/2000/svg" viewBox="0 0 876 223"><title>rflow-logo</title><path d="M265.15,160c-2.36-14.11-7.57-30.56-18.81-42.64a51.32,51.32,0,0,0-13.17-10.26c0-.43,0-.86,0-1.29C233.2,89.9,220.51,77,204.87,77h-.17a76.76,76.76,0,0,0-25-32.53q-2.15-1.66-4.28-3.12a29.39,29.39,0,0,0,.94-7.37c0-15.93-12.68-28.85-28.33-28.85S119.73,18,119.73,34a29.4,29.4,0,0,0,.93,7.33q-2.15,1.48-4.34,3.16A76.76,76.76,0,0,0,91.36,77h-.11C75.61,77,62.93,89.9,62.93,105.84q0,.73,0,1.45a51.35,51.35,0,0,0-12.89,10.1C38.84,129.46,33.63,145.9,31.26,160A28.67,28.67,0,0,0,6.12,188.66c0,15.93,12.68,28.85,28.33,28.85s28.33-12.92,28.33-28.85a28.78,28.78,0,0,0-21-27.87c2.16-12.32,6.67-26.28,16-36.25A41,41,0,0,1,65.57,118a28.3,28.3,0,0,0,25.69,16.69c15.65,0,28.33-12.92,28.33-28.85a28.85,28.85,0,0,0-17.77-26.77A66.37,66.37,0,0,1,122.47,53q1.35-1.06,2.7-2A28,28,0,0,0,170.9,51c8.71,6.28,17.75,15.37,23.28,28.07a28.86,28.86,0,0,0-17.64,26.72c0,.46,0,.92,0,1.38a51.33,51.33,0,0,0-13,10.18c-11.23,12.08-16.44,28.52-18.81,42.62a28.67,28.67,0,0,0-25,28.65c0,15.93,12.68,28.85,28.33,28.85s28.33-12.92,28.33-28.85a28.77,28.77,0,0,0-21.1-27.9c2.16-12.31,6.67-26.25,15.95-36.22a41,41,0,0,1,7.91-6.61,28.11,28.11,0,0,0,51.47-.07,40.94,40.94,0,0,1,8,6.66c9.26,9.94,13.77,23.88,15.94,36.21a28.77,28.77,0,0,0-21.23,27.94c0,15.93,12.68,28.85,28.33,28.85S290,204.6,290,188.66A28.67,28.67,0,0,0,265.15,160Z" fill="#53c7f0"/><path d="M375.46,106.19A27.24,27.24,0,0,0,369,111.9q-3.84,4.31-6.87,12.7v69.2a56.85,56.85,0,0,1,9.32,1.75,43.28,43.28,0,0,1,9.32,3.84v5.83h-55v-5.83a43,43,0,0,1,7.92-3.5q3.72-1.16,7.46-2.1V102.23l-15.38-1.87V94.31a97.16,97.16,0,0,1,15.38-5.24q7.92-2,15.15-3.15h5.82v24.7h.93A41.65,41.65,0,0,1,369,101.3a50.51,50.51,0,0,1,8.85-8.39,38.84,38.84,0,0,1,11-5.71,28.36,28.36,0,0,1,12.23-1.28A48,48,0,0,1,404,92.56q1.28,3.62,2.45,7.57v6.06Z" fill="#53c7f0"/><path d="M479.37,30q2.1,0,4.89.23t5.82.58q3,.35,5.83.93A44.28,44.28,0,0,1,500.81,33q-.7,7.69-2,14.33a87,87,0,0,1-3.14,12h-5.83l-10.25-20a41.42,41.42,0,0,0-11.53,1.4,15.45,15.45,0,0,0-7.92,5.36q-3.15,4-4.66,11.42A101.81,101.81,0,0,0,454,77.07V88.72h26.79v12.12H454v93a84.82,84.82,0,0,1,22.37,5.57v5.8H417.63v-5.8A46,46,0,0,1,433,193.85v-93H415.3V94.57a63.47,63.47,0,0,1,17.71-8V78.46Q433,64,436.5,54.58a35.75,35.75,0,0,1,9.79-14.91,34.9,34.9,0,0,1,14.79-7.57A76.24,76.24,0,0,1,479.37,30Z" fill="#53c7f0"/><path d="M558.36,205.22H506.63v-5.83A76.94,76.94,0,0,1,522,193.8V46.31L504.3,44.45V38.39a79,79,0,0,1,15.15-4.89q9.09-2.1,17.71-3.49H543V193.8a76.94,76.94,0,0,1,15.38,5.59Z" fill="#53c7f0"/><path d="M576.76,147a80.58,80.58,0,0,1,3.84-26,52.69,52.69,0,0,1,11.07-19.11A47.45,47.45,0,0,1,609,90a59.76,59.76,0,0,1,22.48-4.08q14.44,0,24.93,4.43a43.92,43.92,0,0,1,17.13,12.47A51.74,51.74,0,0,1,683.36,122,92,92,0,0,1,686.51,147q0,29.36-14.91,45.2T631.52,208q-14,0-24.23-4.31a44.15,44.15,0,0,1-17-12.35A53.31,53.31,0,0,1,580.14,172,87.17,87.17,0,0,1,576.76,147Zm22.37,0a95,95,0,0,0,2,19.8A49.51,49.51,0,0,0,607.4,183a31.44,31.44,0,0,0,11.3,10.83q7,4,16.78,4,12.58,0,20.62-12.35t8-38.45a94.84,94.84,0,0,0-2-19.92A51.43,51.43,0,0,0,656,111a31.87,31.87,0,0,0-10.72-10.83,29.53,29.53,0,0,0-15.61-4q-13.75,0-22.14,12.35T599.13,147Z" fill="#53c7f0"/><path d="M742.66,208,706.08,100.37q-3.27-1.16-6.41-2.45a33.09,33.09,0,0,1-5.94-3.15V88.72h48.93v5.83q-3.27,1.87-6.52,3.38a40.87,40.87,0,0,1-6.76,2.45l19.87,68,3,16.78h.47l3.5-17.24L781.34,91l7-2.33,26.8,79.45,4.19,17h.47l3.5-17,17.94-67.8a29.7,29.7,0,0,1-5.94-1.86,39.91,39.91,0,0,1-6.87-3.73V88.72H868v6.06a46.53,46.53,0,0,1-13.28,5.59L821.64,205.22,809.3,208l-23.07-65.94-4.43-19.34h-.7l-5.36,19.34-21,63.14Z" fill="#53c7f0"/></svg>